<svg width="35" height="35" viewBox="0 0 35 35" fill="none" xmlns="http://www.w3.org/2000/svg">
<path d="M7.16105 9.99597H0V34.9959H7.16105V9.99597Z" fill="#8DDDBA"/>
<path d="M21.4306 16.6666C21.0508 17.2583 20.8431 17.9752 20.8431 18.7248C20.8431 19.6501 21.1509 20.5087 21.7097 21.158C22.2684 21.8083 23.0131 22.1663 23.8006 22.1663C24.5888 22.1663 25.3335 21.8083 25.8916 21.167C26.9448 19.9415 27.0378 18.0168 26.1637 16.6667L21.4306 16.6666Z" fill="#8DDDBA"/>
<path d="M20.048 29.6581V34.9999H27.209V29.8078C26.1279 30.2579 24.9754 30.4914 23.8006 30.4914C22.4977 30.4915 21.2228 30.2001 20.048 29.6581Z" fill="#8DDDBA"/>
<path d="M13.6969 18.7247C13.6969 15.5834 14.7417 12.6335 16.6536 10.4084C16.8256 10.2083 16.9977 10.0162 17.1837 9.84125V0H10.0227V35H17.1837V27.6163C16.9977 27.4414 16.8256 27.2501 16.6536 27.05C14.7416 24.825 13.6969 21.875 13.6969 18.7247Z" fill="#8DDDBA"/>
<path d="M34.3512 28.1282L30.4875 23.7483C31.3113 22.2657 31.7574 20.5388 31.7574 18.728C31.7574 16.2508 30.9301 13.925 29.4286 12.1777C27.9272 10.4305 25.9286 9.46777 23.7998 9.46777C21.6711 9.46777 19.6717 10.4305 18.171 12.1777C16.6689 13.925 15.8423 16.2508 15.8423 18.728C15.8423 21.2053 16.6689 23.5319 18.1703 25.2791C19.6718 27.0263 21.6712 27.9891 23.7999 27.9891C25.3559 27.9891 26.8405 27.4691 28.1146 26.5104L31.877 31.0051C32.5784 31.989 33.6134 32.0475 34.4134 31.1165C35.2142 30.1863 35.1967 28.942 34.3512 28.1282ZM23.7999 23.6979C22.6592 23.6979 21.5865 23.1803 20.7795 22.242C19.9732 21.3037 19.5291 20.0553 19.5291 18.728C19.5291 17.4008 19.9732 16.1532 20.7795 15.2148C21.5865 14.2764 22.6586 13.7589 23.7999 13.7589C24.9398 13.7589 26.0125 14.2764 26.8188 15.2148C28.4839 17.1525 28.4839 20.3052 26.8188 22.2428C26.0125 23.1811 24.9404 23.6979 23.7999 23.6979Z" fill="#8DDDBA"/>
</svg>
