<svg width="45" height="45" viewBox="0 0 45 45" fill="none" xmlns="http://www.w3.org/2000/svg">
<path d="M18.2812 22.5C18.2812 20.1701 20.1701 18.2812 22.5 18.2812C24.8299 18.2812 26.7188 20.1701 26.7188 22.5C26.7188 24.8299 24.8299 26.7188 22.5 26.7188C20.1701 26.7188 18.2812 24.8299 18.2812 22.5Z" fill="#8DDDBA"/>
<path fill-rule="evenodd" clip-rule="evenodd" d="M4 22C4 24.8689 4.74368 25.8351 6.23106 27.7675C9.20093 31.6257 14.1817 36 21.5 36C28.8183 36 33.799 31.6257 36.7689 27.7675C38.2562 25.8351 39 24.8689 39 22C39 19.1311 38.2562 18.1649 36.7689 16.2326C33.799 12.3742 28.8183 8 21.5 8C14.1817 8 9.20093 12.3742 6.23106 16.2326C4.74368 18.1649 4 19.1311 4 22ZM21.5 15.4375C17.8756 15.4375 14.9375 18.3756 14.9375 22C14.9375 25.6244 17.8756 28.5625 21.5 28.5625C25.1244 28.5625 28.0625 25.6244 28.0625 22C28.0625 18.3756 25.1244 15.4375 21.5 15.4375Z" fill="#8DDDBA"/>
</svg>
