<svg width="45" height="45" viewBox="0 0 45 45" fill="none" xmlns="http://www.w3.org/2000/svg">
<path d="M37.5 28.125C38.5356 28.125 39.375 27.2856 39.375 26.25C39.375 25.2144 38.5356 24.375 37.5 24.375C36.4644 24.375 35.625 25.2144 35.625 26.25C35.625 27.2856 36.4644 28.125 37.5 28.125Z" fill="#8DDDBA"/>
<path fill-rule="evenodd" clip-rule="evenodd" d="M26.0054 6.19688C28.6181 5.41517 31.3423 7.04037 31.8311 9.6723L32.3377 12.4008C34.1613 12.9869 35.4783 14.6674 35.4783 16.6491V20.7675C36.4122 21.5859 37 22.7755 37 24.0994V27.0795C37 28.4034 36.4122 29.5929 35.4783 30.4114V34.5298C35.4783 36.9987 33.4344 39 30.913 39H6.56522C4.04392 39 2 36.9987 2 34.5298V16.6491C2 14.4335 3.64613 12.5944 5.80614 12.2404L26.0054 6.19688ZM32.4348 28.5696C33.2752 28.5696 33.9565 27.9025 33.9565 27.0795V24.0994C33.9565 23.2764 33.2752 22.6093 32.4348 22.6093H27.8696C27.0291 22.6093 26.3478 23.2764 26.3478 24.0994V27.0795C26.3478 27.9025 27.0291 28.5696 27.8696 28.5696H32.4348ZM32.4348 31.5497V34.5298C32.4348 35.3528 31.7535 36.0199 30.913 36.0199H6.56522C5.72479 36.0199 5.04348 35.3528 5.04348 34.5298V16.6491C5.04348 15.8261 5.72479 15.159 6.56522 15.159H30.913C31.75 15.159 32.429 15.8205 32.4348 16.6387V19.6292H27.8696C25.3482 19.6292 23.3043 21.6305 23.3043 24.0994V27.0795C23.3043 29.5484 25.3482 31.5497 27.8696 31.5497H32.4348ZM28.9278 10.1033L29.3018 12.1789H15.6957L26.9918 8.93503C27.8642 8.67879 28.7695 9.22512 28.9278 10.1033Z" fill="#8DDDBA"/>
</svg>
